<?xml version="1.0" encoding="UTF-8" standalone="no"?>
<svg
   version="1.0"
   width="154.7876mm"
   height="51.604332mm"
   id="svg16"
   sodipodi:docname="THM_Logo_4c.emf"
   xmlns:inkscape="http://www.inkscape.org/namespaces/inkscape"
   xmlns:sodipodi="http://sodipodi.sourceforge.net/DTD/sodipodi-0.dtd"
   xmlns="http://www.w3.org/2000/svg"
   xmlns:svg="http://www.w3.org/2000/svg">
  <sodipodi:namedview
     id="namedview16"
     pagecolor="#ffffff"
     bordercolor="#000000"
     borderopacity="0.25"
     inkscape:showpageshadow="2"
     inkscape:pageopacity="0.0"
     inkscape:pagecheckerboard="0"
     inkscape:deskcolor="#d1d1d1"
     inkscape:document-units="mm" />
  <defs
     id="defs1">
    <pattern
       id="EMFhbasepattern"
       patternUnits="userSpaceOnUse"
       width="6"
       height="6"
       x="0"
       y="0" />
  </defs>
  <path
     style="fill:#80ba27;fill-rule:nonzero;fill-opacity:1;stroke:none;"
     d="  M 98,134   L 73,134   L 73,110   L 98,110   L 98,134  z   "
     id="path1" />
  <path
     style="fill:#80ba27;fill-rule:nonzero;fill-opacity:1;stroke:none;"
     d="  M 98,98   L 73,98   L 73,73   L 98,73   L 98,98  z   "
     id="path2" />
  <path
     style="fill:#80ba27;fill-rule:nonzero;fill-opacity:1;stroke:none;"
     d="  M 98,61   L 73,61   L 73,37   L 98,37   L 98,61  z   "
     id="path3" />
  <path
     style="fill:#80ba27;fill-rule:nonzero;fill-opacity:1;stroke:none;"
     d="  M 98,24   L 73,24   L 73,0   L 98,0   L 98,24  z   "
     id="path4" />
  <path
     style="fill:#80ba27;fill-rule:nonzero;fill-opacity:1;stroke:none;"
     d="  M 61,61   L 37,61   L 37,37   L 61,37   L 61,61  z   "
     id="path5" />
  <path
     style="fill:#80ba27;fill-rule:nonzero;fill-opacity:1;stroke:none;"
     d="  M 61,24   L 37,24   L 37,0   L 61,0   L 61,24  z   "
     id="path6" />
  <path
     style="fill:#80ba27;fill-rule:nonzero;fill-opacity:1;stroke:none;"
     d="  M 25,61   L 0,61   L 0,37   L 25,37   L 25,61  z   "
     id="path7" />
  <path
     style="fill:#80ba27;fill-rule:nonzero;fill-opacity:1;stroke:none;"
     d="  M 61,134   L 37,134   L 37,110   L 61,110   L 61,134  z   "
     id="path8" />
  <path
     style="fill:#80ba27;fill-rule:nonzero;fill-opacity:1;stroke:none;"
     d="  M 61,98   L 37,98   L 37,73   L 61,73   L 61,98  z   "
     id="path9" />
  <path
     style="fill:#80ba27;fill-rule:nonzero;fill-opacity:1;stroke:none;"
     d="  M 25,134   L 0,134   L 0,110   L 25,110   L 25,134  z   "
     id="path10" />
  <path
     style="fill:#80ba27;fill-rule:nonzero;fill-opacity:1;stroke:none;"
     d="  M 25,98   L 0,98   L 0,73   L 25,73   L 25,98  z   "
     id="path11" />
  <path
     style="fill:#80ba27;fill-rule:nonzero;fill-opacity:1;stroke:none;"
     d="  M 259,24   L 259,134   L 232,134   L 232,24   L 196,24   L 196,0   L 296,0   L 296,24   L 259,24  z   "
     id="path12" />
  <path
     style="fill:#80ba27;fill-rule:nonzero;fill-opacity:1;stroke:none;"
     d="  M 401,134   L 401,78   L 354,78   L 354,134   L 326,134   L 326,0   L 354,0   L 354,54   L 401,54   L 401,0   L 428,0   L 428,134   L 401,134  z   "
     id="path13" />
  <path
     style="fill:#80ba27;fill-rule:nonzero;fill-opacity:1;stroke:none;"
     d="  M 558,134   L 558,58   L 532,110   L 512,110   L 486,58   L 486,134   L 459,134   L 459,0   L 486,0   L 522,75   L 558,0   L 585,0   L 585,134   L 558,134  z   "
     id="path14" />
  <path
     style="fill:#4b5c66;fill-rule:nonzero;fill-opacity:1;stroke:none;"
     d="  M 585,194   C 585,165 585,165 585,165   C 582,165 582,165 582,165   C 582,185 582,185 582,185   C 574,165 574,165 574,165   C 571,165 571,165 571,165   C 571,194 571,194 571,194   C 574,194 574,194 574,194   C 574,174 574,174 574,174   C 582,194 582,194 582,194   z  M 566,194   C 566,191 566,191 566,191   C 558,191 558,191 558,191   C 558,181 558,181 558,181   C 565,181 565,181 565,181   C 565,178 565,178 565,178   C 558,178 558,178 558,178   C 558,168 558,168 558,168   C 566,168 566,168 566,168   C 566,165 566,165 566,165   C 554,165 554,165 554,165   C 554,194 554,194 554,194   z  M 549,186   C 549,182 548,180 545,178   C 542,177 542,177 542,177   C 539,176 539,175 539,172   C 539,171 539,169 540,169   C 540,168 541,168 542,168   C 543,168 544,168 544,169   C 545,170 545,171 545,172   C 549,172 549,172 549,172   C 549,170 548,168 547,166   C 546,165 544,165 542,165   C 540,165 539,165 537,166   C 536,168 535,170 535,172   C 535,177 536,178 539,180   C 543,181 543,181 543,181   C 545,182 545,183 545,186   C 545,188 545,189 544,190   C 544,191 543,191 542,191   C 541,191 540,191 540,190   C 539,190 539,188 539,187   C 535,187 535,187 535,187   C 535,190 535,191 537,193   C 538,194 540,194 542,194   C 544,194 546,194 547,193   C 549,191 549,189 549,186   M 530,186   C 530,182 529,180 526,178   C 523,177 523,177 523,177   C 520,176 520,175 520,172   C 520,171 520,169 521,169   C 522,168 522,168 523,168   C 524,168 525,168 526,169   C 526,170 527,171 527,172   C 530,172 530,172 530,172   C 530,170 530,168 528,166   C 527,165 525,165 523,165   C 521,165 520,165 519,166   C 517,168 516,170 516,172   C 516,177 517,178 520,180   C 524,181 524,181 524,181   C 526,182 527,183 527,186   C 527,188 527,189 526,190   C 525,191 524,191 523,191   C 522,191 521,191 521,190   C 520,190 520,188 520,187   C 516,187 516,187 516,187   C 516,190 517,191 518,193   C 519,194 521,194 523,194   C 526,194 527,194 528,193   C 530,191 530,189 530,186   M 512,194   C 512,191 512,191 512,191   C 504,191 504,191 504,191   C 504,181 504,181 504,181   C 511,181 511,181 511,181   C 511,178 511,178 511,178   C 504,178 504,178 504,178   C 504,168 504,168 504,168   C 512,168 512,168 512,168   C 512,165 512,165 512,165   C 500,165 500,165 500,165   C 500,194 500,194 500,194   z  M 494,194   C 494,165 494,165 494,165   C 491,165 491,165 491,165   C 491,178 491,178 491,178   C 484,178 484,178 484,178   C 484,165 484,165 484,165   C 481,165 481,165 481,165   C 481,194 481,194 481,194   C 484,194 484,194 484,194   C 484,181 484,181 484,181   C 491,181 491,181 491,181   C 491,194 491,194 491,194   z  M 476,194   C 476,191 476,191 476,191   C 468,191 468,191 468,191   C 468,165 468,165 468,165   C 465,165 465,165 465,165   C 465,194 465,194 465,194   z  M 459,194   C 459,191 459,191 459,191   C 452,191 452,191 452,191   C 452,181 452,181 452,181   C 458,181 458,181 458,181   C 458,178 458,178 458,178   C 452,178 452,178 452,178   C 452,168 452,168 452,168   C 459,168 459,168 459,168   C 459,165 459,165 459,165   C 448,165 448,165 448,165   C 448,194 448,194 448,194   z  M 443,168   C 443,165 443,165 443,165   C 430,165 430,165 430,165   C 430,168 430,168 430,168   C 435,168 435,168 435,168   C 435,194 435,194 435,194   C 438,194 438,194 438,194   C 438,168 438,168 438,168   z  M 426,168   C 426,165 426,165 426,165   C 412,165 412,165 412,165   C 412,168 412,168 412,168   C 417,168 417,168 417,168   C 417,194 417,194 417,194   C 421,194 421,194 421,194   C 421,168 421,168 421,168   z  M 408,165   C 404,165 404,165 404,165   C 404,194 404,194 404,194   C 408,194 408,194 408,194   z  M 398,194   C 398,165 398,165 398,165   C 395,165 395,165 395,165   C 389,181 389,181 389,181   C 383,165 383,165 383,165   C 380,165 380,165 380,165   C 380,194 380,194 380,194   C 383,194 383,194 383,194   C 383,174 383,174 383,174   C 388,187 388,187 388,187   C 390,187 390,187 390,187   C 395,173 395,173 395,173   C 395,194 395,194 395,194   z  M 365,194   C 365,191 365,191 365,191   C 357,191 357,191 357,191   C 357,181 357,181 357,181   C 364,181 364,181 364,181   C 364,178 364,178 364,178   C 357,178 357,178 357,178   C 357,168 357,168 357,168   C 365,168 365,168 365,168   C 365,165 365,165 365,165   C 354,165 354,165 354,165   C 354,194 354,194 354,194   z  M 349,194   C 349,191 349,191 349,191   C 341,191 341,191 341,191   C 341,165 341,165 341,165   C 338,165 338,165 338,165   C 338,194 338,194 338,194   z  M 332,188   C 332,165 332,165 332,165   C 328,165 328,165 328,165   C 328,188 328,188 328,188   C 328,190 327,191 325,191   C 323,191 322,190 322,188   C 322,165 322,165 322,165   C 318,165 318,165 318,165   C 318,188 318,188 318,188   C 318,190 319,191 320,193   C 321,194 323,195 325,195   C 327,195 329,194 330,193   C 331,191 332,190 332,188   M 312,194   C 312,165 312,165 312,165   C 309,165 309,165 309,165   C 309,178 309,178 309,178   C 302,178 302,178 302,178   C 302,165 302,165 302,165   C 299,165 299,165 299,165   C 299,194 299,194 299,194   C 302,194 302,194 302,194   C 302,181 302,181 302,181   C 309,181 309,181 309,181   C 309,194 309,194 309,194   z  M 294,187   C 290,187 290,187 290,187   C 290,188 290,189 289,190   C 289,191 288,191 287,191   C 286,191 285,191 285,190   C 284,189 283,186 283,180   C 283,173 284,170 285,169   C 285,168 286,168 287,168   C 288,168 289,168 289,169   C 290,170 290,171 290,172   C 294,172 294,172 294,172   C 294,170 293,168 292,166   C 290,165 289,165 287,165   C 285,165 283,165 282,167   C 280,169 280,171 280,180   C 280,188 280,190 282,192   C 283,194 285,195 287,195   C 289,195 290,194 292,193   C 293,192 294,189 294,187   M 275,186   C 275,182 275,180 271,178   C 268,177 268,177 268,177   C 266,176 265,175 265,172   C 265,171 265,169 266,169   C 267,168 267,168 268,168   C 270,168 270,168 271,169   C 272,170 272,171 272,172   C 275,172 275,172 275,172   C 275,170 275,168 273,166   C 272,165 271,165 268,165   C 267,165 265,165 264,166   C 262,168 262,170 262,172   C 262,177 263,178 266,180   C 269,181 269,181 269,181   C 271,182 272,183 272,186   C 272,188 272,189 271,190   C 270,191 270,191 268,191   C 267,191 266,191 266,190   C 265,190 265,188 265,187   C 261,187 261,187 261,187   C 261,190 262,191 263,193   C 264,194 266,194 268,194   C 271,194 272,194 274,193   C 275,191 275,189 275,186   M 256,194   C 256,165 256,165 256,165   C 253,165 253,165 253,165   C 253,178 253,178 253,178   C 246,178 246,178 246,178   C 246,165 246,165 246,165   C 243,165 243,165 243,165   C 243,194 243,194 243,194   C 246,194 246,194 246,194   C 246,181 246,181 246,181   C 253,181 253,181 253,181   C 253,194 253,194 253,194   z  M 237,187   C 234,187 234,187 234,187   C 234,188 234,189 233,190   C 232,191 232,191 231,191   C 229,191 229,191 228,190   C 227,189 227,186 227,180   C 227,173 227,170 228,169   C 229,168 229,168 231,168   C 232,168 232,168 233,169   C 234,170 234,171 234,172   C 237,172 237,172 237,172   C 237,170 237,168 235,166   C 234,165 233,165 231,165   C 228,165 227,165 226,167   C 224,169 223,171 223,180   C 223,188 224,190 226,192   C 227,194 228,195 231,195   C 233,195 234,194 235,193   C 237,192 237,189 237,187   M 215,180   C 215,186 215,189 214,190   C 213,191 212,191 211,191   C 210,191 209,191 209,190   C 208,189 208,186 208,180   C 208,173 208,170 209,169   C 209,168 210,168 211,168   C 212,168 213,168 214,169   C 215,170 215,173 215,180   M 218,180   C 218,171 218,169 216,167   C 215,165 214,165 211,165   C 209,165 207,165 206,167   C 204,169 204,171 204,180   C 204,188 204,190 206,192   C 207,194 209,195 211,195   C 214,195 215,194 216,192   C 218,190 218,188 218,180   M 199,194   C 199,165 199,165 199,165   C 195,165 195,165 195,165   C 195,178 195,178 195,178   C 189,178 189,178 189,178   C 189,165 189,165 189,165   C 185,165 185,165 185,165   C 185,194 185,194 185,194   C 189,194 189,194 189,194   C 189,181 189,181 189,181   C 195,181 195,181 195,181   C 195,194 195,194 195,194   z  M 171,194   C 171,191 171,191 171,191   C 163,191 163,191 163,191   C 163,181 163,181 163,181   C 170,181 170,181 170,181   C 170,178 170,178 170,178   C 163,178 163,178 163,178   C 163,168 163,168 163,168   C 171,168 171,168 171,168   C 171,165 171,165 171,165   C 159,165 159,165 159,165   C 159,194 159,194 159,194   z  M 153,194   C 153,165 153,165 153,165   C 150,165 150,165 150,165   C 150,178 150,178 150,178   C 143,178 143,178 143,178   C 143,165 143,165 143,165   C 140,165 140,165 140,165   C 140,194 140,194 140,194   C 143,194 143,194 143,194   C 143,181 143,181 143,181   C 150,181 150,181 150,181   C 150,194 150,194 150,194   z  M 135,187   C 131,187 131,187 131,187   C 131,188 131,189 130,190   C 130,191 129,191 128,191   C 127,191 126,191 126,190   C 125,189 124,186 124,180   C 124,173 125,170 126,169   C 126,168 127,168 128,168   C 129,168 130,168 130,169   C 131,170 131,171 131,172   C 135,172 135,172 135,172   C 135,170 134,168 133,166   C 132,165 130,165 128,165   C 126,165 124,165 123,167   C 121,169 121,171 121,180   C 121,188 121,190 123,192   C 124,194 126,195 128,195   C 130,195 131,194 133,193   C 134,192 135,189 135,187   M 116,186   C 116,182 116,180 112,178   C 109,177 109,177 109,177   C 107,176 106,175 106,172   C 106,171 106,169 107,169   C 108,168 108,168 109,168   C 111,168 111,168 112,169   C 113,170 113,171 113,172   C 116,172 116,172 116,172   C 116,170 116,168 114,166   C 113,165 112,165 109,165   C 108,165 106,165 105,166   C 103,168 103,170 103,172   C 103,177 104,178 107,180   C 110,181 110,181 110,181   C 112,182 113,183 113,186   C 113,188 113,189 112,190   C 111,191 111,191 109,191   C 108,191 107,191 107,190   C 106,190 106,188 106,187   C 102,187 102,187 102,187   C 102,190 103,191 104,193   C 105,194 107,194 109,194   C 112,194 113,194 115,193   C 116,191 116,189 116,186   M 97,165   C 94,165 94,165 94,165   C 94,194 94,194 94,194   C 97,194 97,194 97,194   z  M 87,194   C 87,165 87,165 87,165   C 84,165 84,165 84,165   C 84,185 84,185 84,185   C 76,165 76,165 76,165   C 73,165 73,165 73,165   C 73,194 73,194 73,194   C 76,194 76,194 76,194   C 76,174 76,174 76,174   C 84,194 84,194 84,194   z  M 67,194   C 67,165 67,165 67,165   C 63,165 63,165 63,165   C 63,178 63,178 63,178   C 57,178 57,178 57,178   C 57,165 57,165 57,165   C 53,165 53,165 53,165   C 53,194 53,194 53,194   C 57,194 57,194 57,194   C 57,181 57,181 57,181   C 63,181 63,181 63,181   C 63,194 63,194 63,194   z  M 48,187   C 44,187 44,187 44,187   C 44,188 44,189 44,190   C 43,191 42,191 41,191   C 40,191 39,191 39,190   C 38,189 38,186 38,180   C 38,173 38,170 39,169   C 39,168 40,168 41,168   C 42,168 43,168 44,169   C 44,170 44,171 44,172   C 48,172 48,172 48,172   C 48,170 47,168 46,166   C 45,165 43,165 41,165   C 39,165 37,165 36,167   C 34,169 34,171 34,180   C 34,188 34,190 36,192   C 37,194 39,195 41,195   C 43,195 45,194 46,193   C 47,192 48,189 48,187   M 30,194   C 30,191 30,191 30,191   C 22,191 22,191 22,191   C 22,181 22,181 22,181   C 29,181 29,181 29,181   C 29,178 29,178 29,178   C 22,178 22,178 22,178   C 22,168 22,168 22,168   C 30,168 30,168 30,168   C 30,165 30,165 30,165   C 18,165 18,165 18,165   C 18,194 18,194 18,194   z  M 14,168   C 14,165 14,165 14,165   C 0,165 0,165 0,165   C 0,168 0,168 0,168   C 5,168 5,168 5,168   C 5,194 5,194 5,194   C 9,194 9,194 9,194   C 9,168 9,168 9,168   z "
     id="path15" />
  <path
     style="fill:#4b5c66;fill-rule:nonzero;fill-opacity:1;stroke:none;"
     d="  M 145,134   L 148,134   L 148,0   L 145,0   L 145,134  z   "
     id="path16" />
</svg>
